<svg width="165" height="165" viewBox="0 0 165 165" fill="none" xmlns="http://www.w3.org/2000/svg">
<path d="M44.994 86.233L102.466 140.992C103.425 141.907 104.699 142.417 106.023 142.417C107.348 142.417 108.622 141.907 109.581 140.992L109.643 140.931C110.11 140.487 110.481 139.954 110.735 139.363C110.989 138.771 111.12 138.135 111.12 137.491C111.12 136.848 110.989 136.211 110.735 135.62C110.481 135.029 110.11 134.495 109.643 134.052L55.5231 82.4896L109.643 30.9477C110.11 30.5045 110.481 29.9711 110.735 29.3799C110.989 28.7886 111.12 28.1519 111.12 27.5085C111.12 26.8651 110.989 26.2284 110.735 25.6371C110.481 25.0459 110.11 24.5124 109.643 24.0693L109.581 24.0074C108.622 23.0932 107.348 22.5833 106.023 22.5833C104.699 22.5833 103.425 23.0932 102.466 24.0074L44.994 78.7668C44.4886 79.2483 44.0862 79.8275 43.8112 80.4692C43.5363 81.1109 43.3945 81.8018 43.3945 82.4999C43.3945 83.198 43.5363 83.8889 43.8112 84.5306C44.0862 85.1723 44.4886 85.7515 44.994 86.233Z" fill="#FFC426"/>
</svg>
