<svg width="165" height="165" viewBox="0 0 165 165" fill="none" xmlns="http://www.w3.org/2000/svg">
<path d="M109.52 78.767L52.0481 24.0076C51.0892 23.0935 49.8151 22.5835 48.4903 22.5835C47.1654 22.5835 45.8914 23.0935 44.9325 24.0076L44.8706 24.0695C44.4041 24.5126 44.0327 25.0461 43.7788 25.6373C43.525 26.2286 43.3941 26.8653 43.3941 27.5087C43.3941 28.1521 43.525 28.7888 43.7788 29.3801C44.0327 29.9713 44.4041 30.5048 44.8706 30.9479L98.9906 82.5104L44.8706 134.052C44.4041 134.495 44.0327 135.029 43.7788 135.62C43.525 136.211 43.3941 136.848 43.3941 137.492C43.3941 138.135 43.525 138.772 43.7788 139.363C44.0327 139.954 44.4041 140.488 44.8706 140.931L44.9325 140.993C45.8914 141.907 47.1654 142.417 48.4903 142.417C49.8151 142.417 51.0892 141.907 52.0481 140.993L109.52 86.2332C110.025 85.7517 110.427 85.1725 110.702 84.5308C110.977 83.8891 111.119 83.1982 111.119 82.5001C111.119 81.802 110.977 81.1111 110.702 80.4694C110.427 79.8277 110.025 79.2485 109.52 78.767Z" fill="#FFC426"/>
</svg>
