<svg width="421" height="550" viewBox="0 0 421 550" fill="none" xmlns="http://www.w3.org/2000/svg">
<path fill-rule="evenodd" clip-rule="evenodd" d="M390.491 549.041C400.767 501.697 410.676 447.38 420.218 385.723C420.218 361.501 438.935 289.201 210.294 289.201C-18.3465 289.201 0.370476 362.602 0.370476 385.723C9.91248 447.747 19.8215 502.064 30.0975 549.041H390.124H390.491ZM209.56 229.746C232.28 229.746 254.489 223.009 273.379 210.386C292.27 197.764 306.993 179.823 315.687 158.833C324.382 137.843 326.657 114.745 322.224 92.4623C317.792 70.1792 306.852 49.7108 290.787 33.6455C274.722 17.5803 254.254 6.6397 231.971 2.2073C209.688 -2.22509 186.591 0.0497728 165.601 8.74423C144.611 17.4387 126.671 32.1622 114.049 51.053C101.427 69.9437 94.6895 92.1532 94.6895 114.873C94.6895 145.339 106.792 174.557 128.334 196.1C149.877 217.643 179.095 229.746 209.56 229.746Z" fill="#0E0E0E"/>
</svg>
