<svg width="856" height="121" viewBox="0 0 856 121" fill="none" xmlns="http://www.w3.org/2000/svg">
<path d="M508.708 92.9774H500.424L540.7 0.0854891H548.165L587.668 92.9774H579.377L568.885 67.9249H519.215L508.708 92.9774ZM521.948 61.1091H566.152L544.228 7.96743L521.948 61.1091ZM622.802 28.6692H605.355V0.03125H598.183V28.6692H585.422V34.7044H598.298V77.2364C598.298 89.1908 605.748 92.9774 613.244 92.9774C616.904 92.9774 620.061 92.3282 622.941 91.2852L622.563 85.1186C620.316 86.1694 617.568 86.8262 615.066 86.8262C609.292 86.8262 605.355 84.3227 605.355 75.5442V34.7044H622.802V28.6692ZM635.98 92.9774H643.19V60.2901C643.19 43.2434 652.779 34.5653 662.49 34.5653C675.089 34.5653 678.108 44.1551 678.108 55.4296V92.9774H685.303V59.502C685.303 45.9711 691.602 34.5653 704.317 34.5653C716.615 34.5653 720.962 44.6807 720.962 56.7433V92.9774H728.033V54.1314C728.033 39.6888 721.093 28.6692 705.352 28.6692C695.254 28.6692 687.38 33.9241 683.458 43.2434H683.203C679.783 33.0122 672.843 28.6692 663.664 28.6692C655.025 28.6692 646.641 34.0554 643.051 42.4319H642.797C642.797 39.1556 642.526 32.0693 642.279 28.6692H635.47C635.849 32.7339 635.98 40.871 635.98 44.2789V92.9774ZM771.25 93.0854C752.367 93.0854 739.104 79.323 739.104 60.808C739.104 42.177 752.367 28.6692 771.25 28.6692C790.272 28.6692 803.512 42.177 803.512 60.808C803.512 79.323 790.272 93.0854 771.25 93.0854ZM771.25 34.8358C756.034 34.8358 746.461 46.2494 746.461 60.808C746.461 75.3741 756.034 86.664 771.25 86.664C786.582 86.664 796.17 75.3741 796.17 60.808C796.17 46.2494 786.582 34.8358 771.25 34.8358ZM854.826 39.1014C850.889 32.4016 843.123 28.7388 834.214 28.7388C823.599 28.7388 813.378 33.9937 813.378 45.7933C813.378 68.4968 848.882 58.3892 848.882 75.0418C848.882 83.5886 841.432 86.9809 833.821 86.9809C826.34 86.9809 819.801 83.0554 816.257 77.5225L810.629 81.6102C815.848 89.3455 824.657 93.0161 833.821 93.0161C844.96 93.0161 856 87.5141 856 74.532C856 64.5635 848.488 59.8343 835.526 56.9443C825.436 54.7186 820.202 52.3539 820.202 45.2601C820.202 37.6565 827.536 34.6426 833.959 34.6426C840.768 34.6426 846.288 37.9036 849.307 43.0347L854.826 39.1014ZM0.932129 92.8923H14.6197C40.173 92.8923 60.9861 72.0436 60.9861 46.4966C60.9861 20.9264 40.173 0.0699252 14.6197 0.0699252H0.932129V92.8923ZM132.852 0.0699252H119.179C93.6263 0.0699252 72.7977 20.9264 72.7977 46.4966C72.7977 72.0436 93.6263 92.8923 119.179 92.8923H132.852V0.0699252ZM194.442 0.0699252H160.945V92.8923H194.442C220.003 92.8923 240.808 72.0669 240.808 46.4888C240.808 20.9033 220.003 0.0699252 194.442 0.0699252ZM194.442 78.8285H175.003V14.1571H194.442C212.236 14.1571 226.742 28.677 226.742 46.4888C226.742 64.2852 212.236 78.8285 194.442 78.8285ZM280.08 28.6692C262.362 28.6692 247.941 43.0889 247.941 60.8233C247.941 78.5655 262.362 92.9619 280.08 92.9619C297.79 92.9619 312.211 78.5655 312.211 60.8233C312.211 43.0889 297.79 28.6692 280.08 28.6692ZM280.08 80.0802C269.326 80.0802 260.703 71.3481 260.703 60.6998C260.703 49.9431 269.442 41.2959 280.08 41.2959C290.703 41.2959 299.457 50.0667 299.457 60.6998C299.457 71.4564 290.703 80.0802 280.08 80.0802ZM321.305 92.9774H335.355V0.0854891H321.305V92.9774ZM379.629 28.677C372.82 28.677 366.467 30.8176 361.263 34.4726V0.0854891H347.174V92.9774H361.263V87.1818C366.467 90.8213 372.82 92.9696 379.629 92.9696C397.347 92.9696 411.775 78.5655 411.775 60.8233C411.775 43.0889 397.347 28.677 379.629 28.677ZM379.629 80.088C371.037 80.088 363.819 74.5009 361.263 66.8121C360.623 64.9035 360.26 62.8325 360.26 60.7075C360.26 58.567 360.623 56.5115 361.263 54.5872C363.834 46.8597 371.122 41.3037 379.629 41.3037C390.275 41.3037 399.014 50.0745 399.014 60.7075C399.014 71.4564 390.275 80.088 379.629 80.088ZM463.276 28.7001L444.987 69.8955L426.66 28.7001H411.281L437.282 87.1509C437.282 87.1509 430.921 101.47 430.906 101.509C429.23 105.287 424.791 106.987 421.001 105.31L418.978 104.406L413.319 117.164L413.335 117.172L418.222 119.343C427.362 123.416 438.124 119.274 442.223 110.109C442.269 110.024 475.52 35.6704 478.623 28.7001H463.276Z" fill="white"/>
</svg>
