<svg width="1109" height="121" viewBox="0 0 1109 121" fill="none" xmlns="http://www.w3.org/2000/svg">
<path d="M0.273926 46.827V92.8379L10.6963 92.679C21.9766 92.5201 23.0887 92.393 28.713 90.4865C35.3223 88.2622 41.2643 84.5127 46.3484 79.4286C50.2568 75.5202 53.0212 71.6119 55.4044 66.6231C58.4549 60.2998 59.6941 54.5802 59.6941 47.0176C59.6941 39.4551 58.4549 33.7355 55.4044 27.4122C53.0212 22.4234 50.2568 18.515 46.3484 14.6066C39.5484 7.7749 31.1915 3.45343 21.5635 1.70578C19.7523 1.35625 15.8439 1.16559 9.58415 1.03849L0.273926 0.847838V46.827Z" fill="white"/>
<path d="M113.236 1.29269C102.273 2.15063 92.7404 6.5992 84.7647 14.5749C77.9648 21.4066 74.0882 28.5878 72.0545 38.1205C71.4826 40.8532 71.3555 42.4737 71.3555 47.0176C71.3555 51.5615 71.4826 53.1821 72.0545 55.9148C75.8358 73.7408 88.3871 86.8959 106.086 91.5986L109.74 92.5837L120.322 92.7108L130.871 92.8379V46.8905V0.943164L123.658 0.97494C119.654 1.00672 114.983 1.13382 113.236 1.29269Z" fill="white"/>
<path d="M158.198 46.828V92.7754H177.2C198.108 92.7754 199.252 92.6801 205.226 90.8053C212.026 88.6446 217.968 85.0857 223.147 80.0652C230.074 73.3606 234.396 65.5756 236.43 56.1382C237.415 51.4672 237.415 42.5701 236.43 37.8991C232.902 21.5347 221.495 8.63388 206.02 3.51803C199.062 1.23019 198.49 1.16664 177.2 1.00777L158.198 0.880664V46.828ZM196.17 15.7198C211.708 18.2301 223.052 31.4805 223.02 47.1458C222.988 61.9214 212.82 74.4409 197.918 78.0633C196.297 78.4446 193.342 78.6035 184.191 78.6988L172.497 78.8577V47.0505V15.2432H182.92C190.514 15.2432 194.073 15.3703 196.17 15.7198Z" fill="white"/>
<path d="M316.44 47.1772V93.0928H323.589H330.739V47.1772V1.2616H323.589H316.44V47.1772Z" fill="white"/>
<path d="M341.86 47.1772V93.0928H349.01H356.159V90.3919C356.159 88.8984 356.223 87.6909 356.318 87.6909C356.382 87.6909 357.113 88.104 357.939 88.6442C360.068 89.9788 363.627 91.4087 366.868 92.2031C371.03 93.2199 377.703 93.1563 381.929 92.0442C395.084 88.5807 404.204 78.0947 405.761 64.6537C407.286 51.7211 400.423 38.7885 388.888 32.91C383.709 30.2726 379.896 29.3829 373.795 29.4147C368.17 29.4782 364.58 30.3362 359.591 32.8464L356.159 34.5623V17.912V1.2616H349.01H341.86V47.1772ZM378.847 42.7604C386.854 44.6987 393.019 52.6743 393.019 60.9995C393.019 66.2425 391.176 70.5004 387.268 74.377C384.44 77.2368 381.58 78.762 377.703 79.5564C374.653 80.1919 373.604 80.1919 370.522 79.5564C363.15 78.063 357.303 72.3116 355.651 64.9397C353.871 56.8687 357.971 48.194 365.374 44.3492C369.918 41.9978 373.827 41.5211 378.847 42.7604Z" fill="white"/>
<path d="M270.842 29.6681C258.958 31.6064 249.076 40.1858 245.485 51.6249C240.02 69.0061 250.252 87.3724 267.982 92.0116C272.336 93.1555 278.945 93.2509 283.171 92.2023C294.483 89.406 303.571 80.7313 306.558 69.8959C309.132 60.681 307.479 50.7988 302.141 43.0773C300.235 40.3446 296.136 36.2774 293.466 34.5297C287.143 30.3354 278.278 28.4288 270.842 29.6681ZM280.661 42.7914C287.302 44.4437 292.926 50.3539 294.388 57.1221C296.358 66.5277 290.956 75.8697 281.773 78.9201C276.911 80.5407 272.304 80.2229 267.569 77.9668C262.898 75.7108 258.704 70.4996 257.497 65.4155C256.956 63.0006 256.893 59.4735 257.369 57.1221C258.291 52.7053 261.977 47.3988 265.726 45.1427C270.715 42.1559 275.259 41.425 280.661 42.7914Z" fill="white"/>
<path d="M405.189 29.6047C405.284 29.8271 411.067 42.855 418.058 58.5521L430.8 87.0865L427.463 94.6173C424.572 101.131 423.936 102.307 422.761 103.451C420.441 105.612 417.962 105.993 414.817 104.69C413.768 104.277 412.878 103.959 412.847 103.991C412.624 104.214 407.318 116.352 407.318 116.606C407.318 116.987 410.781 118.608 413.895 119.656C416.596 120.578 421.331 120.705 424.159 119.942C428.417 118.798 432.77 115.621 434.867 112.126C435.979 110.219 471.822 30.2084 471.822 29.6047C471.822 29.3187 469.915 29.2234 464.132 29.2869L456.474 29.3822L447.8 48.9242C443.002 59.6643 438.998 68.7203 438.871 69.0381C438.68 69.4511 436.202 64.2082 429.688 49.4961L420.727 29.3822L412.878 29.2869C406.619 29.2234 405.062 29.2869 405.189 29.6047Z" fill="white"/>
<path d="M550.97 1.24075C540.126 2.49997 530.682 7.25704 523.407 14.9523C515.152 23.7668 511.584 33.281 511.584 46.6427C511.584 69.0989 524.316 86.1683 544.883 91.4151C555.167 94.0734 568.599 93.0241 576.994 88.8966C581.541 86.658 587.837 81.761 589.866 78.8928L591.405 76.7941L586.368 73.2263L581.331 69.7285L577.273 73.5761C570.488 80.0821 562.233 82.5306 552.719 80.9915C536.349 78.4031 525.575 64.9015 525.575 46.9925C525.575 32.6514 532.291 21.2484 544.254 15.372C549.501 12.7836 549.85 12.7137 557.336 12.7137C564.611 12.7137 565.381 12.8536 569.718 14.8823C572.237 16.0716 575.455 18.2403 576.854 19.6394C578.253 21.0385 579.582 22.1578 579.862 22.1578C580.142 22.1578 582.45 20.5488 585.109 18.5201C590.495 14.3926 590.495 14.1828 585.598 9.9154C577.483 3.05963 563.982 -0.368257 550.97 1.24075Z" fill="white"/>
<path d="M622.116 46.9927V92.8145H629.111H636.107V46.9927V1.17102H629.111H622.116V46.9927Z" fill="white"/>
<path d="M676.682 46.9927V92.8145H683.328H689.974L690.114 56.0871L690.324 19.2898L714.109 56.0871L737.894 92.8145H746.499H755.034V46.9927V1.17102H748.038H741.042L740.902 36.779L740.693 72.3171L717.537 36.919L694.451 1.52081L685.567 1.31094L676.682 1.10107V46.9927Z" fill="white"/>
<path d="M795.609 46.9927V92.8145H826.39H857.171V86.8681V80.9218H833.036H808.901V66.2309V51.5399H830.587H852.274V45.5936V39.6473H830.587H808.901V26.3555V13.0637H831.986H855.072V7.11735V1.17102H825.341H795.609V46.9927Z" fill="white"/>
<path d="M891.45 46.9921V92.8138H898.096H904.742L904.881 55.9466L905.091 19.0094L912.017 36.4986C915.795 46.1526 922.371 62.7324 926.568 73.4358L934.263 92.8838L938.81 92.6739L943.358 92.464L958.189 55.1071L972.949 17.8201L973.159 55.317L973.299 92.8138H979.945H986.591V46.9921V1.1704H976.237H965.814L952.522 35.869L939.16 70.5676L934.333 58.0453C931.605 51.1895 925.519 35.5892 920.762 23.3467L912.157 1.1704H901.803H891.45V46.9921Z" fill="white"/>
<path d="M1053.89 7.60702C1039.55 40.4168 1017.86 90.6458 1017.58 91.6252C1017.23 92.7445 1017.79 92.8144 1024.72 92.6745L1032.2 92.4646L1034.93 85.8187C1036.47 82.181 1038.5 77.2141 1039.48 74.7656L1041.3 70.4282H1062.49H1083.69L1086.56 77.2141C1088.1 80.9917 1090.2 85.9587 1091.11 88.2672L1092.79 92.4646L1100.62 92.6745C1106.85 92.8144 1108.39 92.6745 1108.11 91.9749C1107.9 91.4853 1099.08 70.9179 1088.45 46.2931L1069.21 1.52077L1062.98 1.3109L1056.69 1.10103L1053.89 7.60702ZM1070.82 58.3957C1066.48 58.4656 1059.14 58.4656 1054.59 58.3957L1046.19 58.1858L1054.38 37.7584L1062.49 17.331L1070.61 37.7584L1078.65 58.1858L1070.82 58.3957Z" fill="white"/>
</svg>
