<svg xmlns="http://www.w3.org/2000/svg" viewBox="0 0 24 24"><title>icon-heart-outline-white-lg</title><g id="Layer_2" data-name="Layer 2"><g id="Layer_1-2" data-name="Layer 1"><path d="M17.95,3.5a2.94,2.94,0,0,1,2.33,1c2,2.31,1.73,4.89-.81,7.69C18.32,13.49,14,17.88,12,19.88c-2-2-6.32-6.4-7.48-7.73C2,9.38,1.72,6.8,3.72,4.49a2.94,2.94,0,0,1,2.34-1,7,7,0,0,1,4.85,2.33L12,7.08l1.11-1.26a7,7,0,0,1,4.8-2.32h0m0-1.5A8.42,8.42,0,0,0,12,4.83,8.56,8.56,0,0,0,6.06,2,4.43,4.43,0,0,0,2.59,3.51C.14,6.33.27,9.73,3.4,13.16,4.95,14.94,12,22,12,22s7.08-7.06,8.62-8.84c3.13-3.43,3.26-6.83.82-9.65A4.43,4.43,0,0,0,17.95,2Z" style="fill:#fff"/><rect width="24" height="24" style="fill:none"/></g></g></svg>