<?xml version="1.0" encoding="UTF-8"?>
<svg id="layer" xmlns="http://www.w3.org/2000/svg" viewBox="0 0 683.02 774.96">
  <path d="M398.85,687.89c-2.09-6.79-4.18-8.35-7.83-19.31-3.65-11.48-15.66-56.38-15.66-56.38l2.09-1.57c2.09,6.26,8.87,15.14,8.87,15.14,5.22,12.53,10.44,33.41,13.57,47.5,3.13,14.09,5.22,21.92,5.22,21.92-3.65-6.26-6.26-7.31-6.26-7.31M677.08,67.76c-5.22-3.65-7.83-3.65-7.83-3.65l-1.57-1.04c1.57-2.09-.52-2.09.52-5.74,1.57-3.13,0-3.65,0-3.65,0,0-3.13,0-3.13-3.13.52-3.13,2.09-4.18,1.57-6.26-.52-2.09-3.13.52-4.18-2.61-1.57-4.18-3.13-3.65-3.13-3.65l-2.09-.52c-3.13-3.13-7.31-3.13-7.31-3.13l-4.18-3.13c-2.61-7.31-3.13-16.18-4.7-15.66s-.52,3.65-1.57,6.79c-1.04,3.13-2.09,1.57-2.09,1.57-5.74-13.05-10.96-11.48-12.53-13.57s-2.61-1.04-5.74-3.65-5.74,0-1.57,2.61c4.18,2.61,4.7,7.83,5.74,9.92,1.04,2.09-1.04,3.13-3.13,2.09-2.09-1.57-.52-4.18-3.65-8.87-3.13-4.18-13.57-14.09-14.09-10.96-1.04,3.13,3.13,4.18,6.26,12.53,3.13,8.35,0,8.35-1.04,8.35s-2.61-1.04-6.79-6.26-6.79-5.74-6.79-5.74c-2.09-3.13-4.7-4.7-7.83-6.26-3.13-2.09-4.18-5.22-5.74-3.65-1.57,1.57,0,4.7,4.7,9.4,4.7,4.7,3.65,4.18,5.74,8.35,2.09,4.7,1.57,5.22-1.57,5.74-3.13.52-9.4-7.31-12.01-9.92s-6.26-5.22-9.4-7.83c-3.13-2.09-3.65.52-2.09,3.65,1.57,3.13,6.79,9.4,9.92,13.57,3.13,4.18-.52,5.22-3.13,5.22s-5.22-2.09-5.22-2.09c-6.79-3.65-7.83-3.65-10.44-5.22s-6.79-5.22-7.31-4.7c-1.04.52-2.61,2.09,1.04,7.31,3.65,5.74,0,5.74,0,5.74-5.74-2.09-11.48,1.04-10.44,5.22,1.57,4.7,4.7,7.83,4.7,7.83,0,0-.52.52-1.04,2.61-.52,2.61,2.09,4.18,2.09,4.18,0,2.61,1.57,7.31,6.26,7.31,7.83,0,1.04,1.57,7.31,3.13,6.26,2.09,16.18,2.09,16.18,2.09.52,1.57-1.04,2.61-1.04,2.61,0,0-22.45,7.83-53.24,41.24-1.04,1.04-2.61,6.26-4.18,7.31-4.7,5.74-8.87,10.44-13.05,17.23-2.09,3.13-5.22,6.26-7.31,9.4-5.74,9.4-11.48,16.18-15.66,25.06-1.57,2.61-3.13,7.31-4.7,9.4-11.48,16.7-18.27,23.49-18.27,23.49,0,0-7.83,9.92-41.24,23.49-7.31,3.13-12.01,4.7-21.4,6.26-11.48,2.61-21.4,4.7-31.84,8.35-11.48,3.65-20.88,5.74-37.58,12.53-10.96,4.7-26.62,13.05-42.28,19.84,0,0-.52-2.61-2.61-6.79-.52-.52-1.57-2.61-1.57-3.65-.52-1.04-1.57-1.57-2.09-2.61l-1.57-3.13c-1.04-1.04-2.61-2.61-3.65-3.65-4.18-4.7-7.31-8.35-15.66-9.92-1.57-.52-2.61-1.04-3.65-1.04-.52,0-2.09-1.04-2.61-1.04-2.09-1.04-4.7-3.13-6.26-4.18-10.44-5.74-15.14-11.48-15.14-11.48,0,0-7.31-31.32-34.97-52.2-1.57-1.04-4.18-.52-5.74-1.57-2.09-1.57-3.65-4.7-5.74-5.74l-3.65.52-.52-1.04-3.65-4.7-2.09,2.09c-7.83-3.65-17.23-8.35-27.67-8.87l-14.09,1.04c-5.74,0-10.96.52-16.18,1.57-4.18.52-7.83,2.09-11.48,3.13-12.01,3.65-22.45,8.35-31.32,14.62-10.44,7.83-19.31,16.7-25.06,24.53-22.97,25.06-31.32,62.12-31.32,62.12-4.7,7.83-6.79,19.84-6.79,19.84-9.4,21.4-11.48,47.5-5.74,68.38,5.74,21.4,21.4,31.32,21.4,31.32v-2.61c-2.61-5.74-9.4-18.79-9.4-18.79-1.57-5.74-2.61-12.53-3.13-25.06s3.13-25.06,4.18-29.23c1.04-4.18,3.13-5.74,3.13-5.74,2.09,3.65,6.79,10.44,6.79,10.44-1.04-5.74-4.7-17.23-4.7-17.23,11.48-21.92,18.27-26.62,18.27-26.62v-1.56c-1.04-.52-2.09-1.57-2.09-1.57,2.61.52,4.18.52,4.18.52,4.18-4.7,8.35-8.87,8.35-8.87,1.57,2.61,2.61,3.65,2.61,3.65l1.04-2.61,1.57.52,1.04-2.09c1.04-.52,2.61.52,2.61.52l2.09-.52c-4.7,2.09-5.74,5.74-5.74,5.74l1.57,2.61,5.22,3.65.52,1.04c-6.26,8.35-8.35,16.7-8.35,16.7-.52,2.61-1.57,6.26-1.57,6.26-2.61,5.22-2.61,13.57-2.09,17.75.52,4.18,3.65,7.31,3.65,7.31,0,0,2.09-8.35,3.65-12.01,1.57-3.65,2.61-4.7,4.18-9.4,1.57-4.18,4.18-6.26,4.18-6.26l.52-.52c0,2.09-1.57,10.96,1.04,15.66s4.18,7.83,4.7,7.83c1.04-.52,2.61-4.18,2.61-4.18,0,0,.52,1.04,1.57,2.61.52,1.04-.52,2.61-.52,2.61-6.79,3.13-6.79,4.7-6.79,4.7h2.09c5.74-.52.52,1.57.52,1.57-3.65,1.04-3.65,2.61-3.65,2.61h2.61l-.52,1.04h2.09l.52.52-3.65,2.09c1.04,7.31,5.22,7.31,12.01,5.22,6.79-1.57,13.05-3.65,13.05-3.65l-.52,1.04s15.66-3.65,20.36-4.7c4.7-1.04,7.83,2.09,7.83,2.09-1.57,1.04-1.57,3.65-1.57,3.65-2.61.52-3.13,4.18-3.13,4.18,0,0-1.57.52-.52,4.7,1.04,4.18,5.74,9.92,5.74,9.92,4.18.52,5.22,3.13,4.18,6.79-1.57,3.65,1.04,7.83,8.35,8.87,7.31,1.04,7.31,3.65,7.31,3.65,2.61,4.18.52,8.35.52,8.35-4.18,4.7,4.18,8.87,4.18,8.87,4.18,4.18,1.57,8.87,1.57,8.87l-1.04-1.57v2.09l-1.57-2.09v2.09l-2.61-1.04c2.09,4.18,5.22,5.74,5.22,5.74v2.09l.52,1.04v1.57c1.04,1.57-.52,2.61-.52,2.61,3.65,2.09,1.04,5.74,1.04,5.74,5.22,3.13,8.35,6.79,8.35,6.79l-1.04,2.09,4.7.52,3.13,2.09,2.09-1.57,1.57,1.57,1.04,2.09,1.04.52v1.57c1.57,1.57.52,2.61.52,2.61,4.18,1.57,2.09,5.74,2.09,5.74,1.04,1.57,2.09,5.74,2.09,5.74l5.22,3.13,3.65,1.57,1.57.52-1.57,5.22,2.09-2.09,4.18,4.7c4.18,7.31,10.96,14.62,15.14,16.7,3.65,2.09,1.04,4.7,1.04,4.7,5.22,3.13,8.35,6.79,8.35,6.79l-1.04,1.57,4.7.52,3.65,2.09,2.09-1.57,2.09,3.13,2.09-.52-.52,2.09,5.22,5.22,3.13.52-1.57,2.09,3.65,1.04-.52,2.09,4.7-1.04,1.57,2.09,4.18,3.13,3.65,1.57,1.57.52,3.13,3.65,2.09-2.09,4.18,4.7,2.09,2.09-2.09,1.57c1.57,1.04,9.4,5.22,9.4,5.22l1.04,3.13,2.09,1.57v4.18s1.04,0,5.22-.52,7.31,2.09,7.31,2.09c-2.09,14.09,1.57,12.53,1.57,12.53l3.65-1.57c5.22,0,6.79-3.13,6.79-3.13.52,2.61,5.74,3.65,6.26,5.74.52,2.09-3.13,4.18-3.13,4.18l3.13,1.04,1.57-1.04v2.09l3.13-1.04c1.57,8.35,4.18,6.26,4.18,6.26,0,0,4.18-1.57,5.22-3.13,1.04-1.57,4.18,3.65,4.18,3.65l.52,3.65c-3.13,7.83-2.09,18.79-2.09,18.79,4.7,12.01,10.44,16.7,10.44,16.7,0,0,2.09,17.75,5.74,23.49,3.65,5.22,16.7,42.8,18.79,49.59,2.09,6.26,5.22,14.62,5.22,14.62,0,0-1.57,2.61-.52,2.61s.52,1.57.52,1.57c-1.57,2.61,0,2.09,0,3.13s.52,8.35-2.61,8.35c-2.61.52-3.13,3.65-3.13,3.65-4.18,2.09-3.13,2.61-3.65,3.65-.52.52-2.61,2.09-2.61,2.09v1.04s-1.57,1.57-2.61,2.61-4.7,4.18-4.7,4.18l-2.09,1.04-2.09,1.57-1.57,1.04-1.57.52-1.57.52-1.57,1.04-.52.52c-6.26,1.04-9.4,4.18-11.48,8.87-2.09,4.18,0,8.87,2.61,4.7s6.26-4.18,6.26-4.18c0,0-.52,4.18,5.74,4.7,6.26.52,8.87-2.09,9.92-2.61,1.04-.52,2.09-3.13,2.09-3.13.52-1.04,3.13-1.04,3.13-1.04,2.61-2.09,3.65-3.65,6.26-5.74,2.09-1.57,3.13-1.04,3.13-1.04,0,0,.52,3.13-.52,5.74-1.57,2.61-6.79,6.79-6.79,6.79-5.22,1.57-9.4,4.18-10.44,4.7-1.04.52-4.18,3.65-4.18,3.65v1.04c-3.65,2.09-10.44,8.35-11.48,13.05s3.13,1.57,5.74-.52c2.09-2.09,4.18-3.65,4.18-3.65h1.57c1.57,2.09,8.87,3.13,12.01,0,3.65-3.65,6.26-3.13,8.35-3.65,2.09-.52,5.22,0,8.87-5.74,4.18-5.74,8.87-6.26,12.01-6.79,3.13-.52,7.31,2.09,7.31,2.09l-1.04.52c-6.79,1.04-10.44,6.79-11.48,11.48-1.04,4.18,1.57,5.74,2.61,2.61,1.04-2.61,5.22-4.7,5.74-4.7.52-.52,1.04,1.04,1.04,1.04,1.04,3.65,6.26,4.7,10.44,3.65,4.7-1.04,5.74-3.65,6.26-4.7s1.57-1.57,1.57-1.57c0,0,0,3.13-.52,4.7-.52,1.04-4.18,4.7-4.18,4.7-3.65,1.57-3.65,2.61-3.65,2.61-6.79,1.04-7.83,2.09-8.35,2.61s-1.57,1.04-1.57,1.04c-5.74,1.57-9.92,6.26-12.01,8.87s-4.7,8.87-2.09,6.79c3.65-2.61,8.87-5.74,8.87-5.74,2.09-1.57,1.04,1.04,3.65,2.09,4.18,1.04,10.44-.52,10.44-.52,1.57-2.09,3.13-2.09,3.13-2.09,7.83,0,10.44-3.13,10.44-3.13h4.18l3.65-2.61c7.31-1.57,5.22-4.18,5.22-4.18,2.61,0,21.92-.52,24.53,0s10.44,2.61,10.44,2.61l12.01.52s10.96,2.09,14.09.52c5.74-2.61,9.4-1.04,12.53.52s13.05,1.57,14.09-.52c1.04-2.09,3.13-3.13,3.13-3.13,4.7.52,7.83,5.74,12.01,5.22,4.7-.52-.52-5.22-6.26-9.92-5.74-4.18-13.57-5.22-13.57-5.22l-.52-.52c2.61-.52.52,1.04,8.35,0s6.26-3.65,6.26-3.65c2.61-2.09,7.31-2.09,13.05-.52,5.74,1.57,4.7-1.04-1.57-5.74-6.26-5.22-16.7-2.09-16.7-2.09l-1.57-1.04h-4.18l-2.61-1.04c-5.22.52-18.27,4.18-25.06,1.57-6.79-2.09-10.44-1.04-10.44-1.04l-4.7-2.61c2.61.52,4.18-2.09,4.18-2.09,5.22,2.61,9.4,0,9.4,0,0,0,0,1.04,6.79,1.04,6.79-.52,7.83-5.74,7.83-5.74,2.09-1.57,6.79-.52,6.79-.52,9.4,4.18,5.74-1.04,5.74-1.04-6.26-9.4-17.75-5.74-17.75-5.74-5.22-2.61-5.22-.52-5.22-.52-8.35-.52-13.05,1.04-13.05,1.04-5.22,0-10.96-.52-16.7.52-5.22.52-15.14-1.04-15.14-1.04-4.7-8.35-9.4-33.93-12.01-39.15-2.09-5.22-9.4-38.11-9.4-38.11l-3.13-20.36c2.09-2.61,2.09-3.65,2.61-11.48.52-7.83,5.22-8.87,7.31-19.31,2.09-10.44,17.75-24.53,21.4-29.75,4.18-5.22,10.96-17.23,10.96-17.23,2.61,3.65,4.18,2.09,6.26-.52,2.09-2.09,2.09-7.31,2.61-8.87.52-1.57,1.57-4.7,1.57-4.7v-5.74c1.57-5.22,4.18-10.44,4.18-10.44l1.04-3.13.52-1.57s-.52-.52,4.18-7.31c4.7-7.31,17.23-15.66,17.23-15.66l-4.18,4.7c2.61-1.57,10.44-4.18,10.44-4.18l2.61-2.09-1.04,3.13c9.92-10.44,12.01-6.79,12.01-6.79l.52-3.65c1.04-2.09,2.61,1.57,2.61,1.57,4.18-3.65,7.31-7.31,7.31-7.31l.52,4.18,1.57.52c.52-3.13,2.61-4.7,2.61-4.7,1.04,2.61-.52,6.26-.52,6.26l1.57-2.61.52.52c1.57-1.57,2.61-5.22,2.61-5.22h2.09s4.18-4.7,3.65-8.35c-.52-3.65,2.09-7.31,2.09-7.31.52,3.13,2.61,4.18,2.61,4.18v-6.26l1.57,1.04c-.52-6.26,1.04-13.05,1.04-13.05,8.35-7.83,32.89-26.1,32.89-26.1,6.26-4.7,11.48-12.01,20.88-19.31,9.4-7.31,16.18-12.53,16.18-12.53l-.52-2.09,2.09-.52c7.83-9.92,15.14-22.45,18.27-32.36,3.13-9.92,8.87-27.14,8.87-27.14l-.52-2.09c4.18-.52.52-5.74,3.13-7.31,2.61-2.09,2.09-7.83,2.09-7.83,3.13-5.74,2.61-10.96,2.61-10.96,1.57-2.09,2.09-7.31,2.09-10.44s1.57-8.35,4.7-24.53c3.65-18.79-6.26-38.63-9.4-54.81-6.26-15.14-14.62-26.62-19.31-34.45-3.13-4.7.52-5.74.52-5.74l10.96-2.61,17.23-5.22s4.18-2.61,5.74-5.22c1.57-2.09,3.13-2.61,3.13-2.61,5.74-1.04,4.7-5.74,4.7-5.74,6.26-5.74,4.18-17.23,4.18-17.23,0,0,2.61-3.65-1.57-16.18-4.18-12.01-9.4-13.05-9.4-13.05,0,0,.52-.52-1.04-2.61s-3.65-2.09-3.65-2.09c.52-2.09,2.09-2.09,3.65-3.65,1.57-1.04,2.61-1.04,2.61-1.04,3.13.52,4.18.52,7.31.52s5.22-.52,6.79-1.57c1.57-.52,5.22,2.09,3.65-2.61,2.09-6.27-.52-8.88-5.22-12.53"/>
</svg>