<svg width="16" height="20" viewBox="0 0 16 20" fill="none" xmlns="http://www.w3.org/2000/svg">
<path fill-rule="evenodd" clip-rule="evenodd" d="M8 20C6 19.23 0 14.67 0 7.69C0 3 3.14 0 8 0C12.86 0 16 3 16 7.69C16 14.69 10 19.23 8 20ZM8 11C8.59334 11 9.17336 10.8241 9.66671 10.4944C10.1601 10.1648 10.5446 9.69623 10.7716 9.14805C10.9987 8.59987 11.0581 7.99667 10.9424 7.41473C10.8266 6.83279 10.5409 6.29824 10.1213 5.87868C9.70176 5.45912 9.16721 5.1734 8.58527 5.05764C8.00333 4.94189 7.40013 5.0013 6.85195 5.22836C6.30377 5.45542 5.83524 5.83994 5.50559 6.33329C5.17595 6.82664 5 7.40666 5 8C5 8.79565 5.31607 9.55871 5.87868 10.1213C6.44129 10.6839 7.20435 11 8 11Z" fill="#0D0D0D"/>
</svg>
