<svg width="550" height="549" viewBox="0 0 550 549" fill="none" xmlns="http://www.w3.org/2000/svg">
<path fill-rule="evenodd" clip-rule="evenodd" d="M418.747 356.265L541.325 478.845C546.659 484.209 549.653 491.466 549.653 499.03C549.653 506.595 546.659 513.852 541.325 519.216L520.039 540.502C514.675 545.836 507.418 548.83 499.854 548.83C492.29 548.83 485.033 545.836 479.669 540.502L357.091 417.922C310.07 449.892 252.824 463.194 196.525 455.233C140.226 447.272 88.9124 418.618 52.599 374.865C16.2856 331.111 -2.42223 275.396 0.126179 218.593C2.67459 161.789 26.2964 107.974 66.3819 67.6474C106.467 27.3211 160.14 3.37807 216.926 0.490544C273.713 -2.39698 329.537 15.9782 373.506 52.0303C417.475 88.0824 446.434 139.224 454.731 195.476C463.028 251.728 450.068 309.053 418.38 356.265H418.747ZM229.742 374.982C258.413 374.982 286.441 366.48 310.28 350.551C334.12 334.622 352.7 311.981 363.672 285.491C374.644 259.002 377.515 229.854 371.922 201.733C366.328 173.612 352.521 147.781 332.248 127.507C311.974 107.233 286.144 93.4265 258.023 87.8329C229.903 82.2393 200.755 85.1102 174.266 96.0824C147.777 107.055 125.137 125.635 109.208 149.475C93.2791 173.315 84.777 201.343 84.777 230.015C84.777 268.463 100.05 305.336 127.236 332.522C154.423 359.709 191.295 374.982 229.742 374.982Z" fill="#0E0E0E"/>
</svg>
