<svg width="17" height="20" viewBox="0 0 17 20" fill="none" xmlns="http://www.w3.org/2000/svg">
<path fill-rule="evenodd" clip-rule="evenodd" d="M13.63 0H14.54C15.02 0 15.4804 0.190696 15.8199 0.530137C16.1593 0.869578 16.35 1.32996 16.35 1.81V18.19C16.35 18.6683 16.1607 19.1272 15.8234 19.4663C15.4861 19.8055 15.0283 19.9974 14.55 20H13.64V18.94C13.64 18.8604 13.6084 18.7841 13.5521 18.7279C13.4959 18.6716 13.4196 18.64 13.34 18.64H11.18C11.1004 18.64 11.0241 18.6716 10.9679 18.7279C10.9116 18.7841 10.88 18.8604 10.88 18.94V20H5.45V18.94C5.45 18.8604 5.41839 18.7841 5.36213 18.7279C5.30587 18.6716 5.22956 18.64 5.15 18.64H3.03C2.95043 18.64 2.87413 18.6716 2.81787 18.7279C2.76161 18.7841 2.73 18.8604 2.73 18.94V20H1.81C1.32996 20 0.869578 19.8093 0.530137 19.4699C0.190696 19.1304 0 18.67 0 18.19V1.81C0 1.32996 0.190696 0.869578 0.530137 0.530137C0.869578 0.190696 1.32996 0 1.81 0L2.72 0V1.06C2.72 1.0994 2.72776 1.13841 2.74284 1.17481C2.75791 1.2112 2.78001 1.24427 2.80787 1.27213C2.86413 1.32839 2.94044 1.36 3.02 1.36H5.18C5.2194 1.36 5.25841 1.35224 5.29481 1.33716C5.3312 1.32209 5.36427 1.29999 5.39213 1.27213C5.41999 1.24427 5.44209 1.2112 5.45716 1.17481C5.47224 1.13841 5.48 1.0994 5.48 1.06V0H10.93V1.06C10.93 1.0994 10.9378 1.13841 10.9528 1.17481C10.9679 1.2112 10.99 1.24427 11.0179 1.27213C11.0457 1.29999 11.0788 1.32209 11.1152 1.33716C11.1516 1.35224 11.1906 1.36 11.23 1.36H13.35C13.3894 1.36 13.4284 1.35224 13.4648 1.33716C13.5012 1.32209 13.5343 1.29999 13.5621 1.27213C13.59 1.24427 13.6121 1.2112 13.6272 1.17481C13.6422 1.13841 13.65 1.0994 13.65 1.06V0H13.63ZM2.73 13.94V16.06C2.73 16.1396 2.76161 16.2159 2.81787 16.2721C2.87413 16.3284 2.95043 16.36 3.03 16.36H5.18C5.25956 16.36 5.33587 16.3284 5.39213 16.2721C5.44839 16.2159 5.48 16.1396 5.48 16.06V13.94C5.48 13.8604 5.44839 13.7841 5.39213 13.7279C5.33587 13.6716 5.25956 13.64 5.18 13.64H3.03C2.95043 13.64 2.87413 13.6716 2.81787 13.7279C2.76161 13.7841 2.73 13.8604 2.73 13.94ZM10.91 13.94V16.06C10.91 16.1396 10.9416 16.2159 10.9979 16.2721C11.0541 16.3284 11.1304 16.36 11.21 16.36H13.33C13.3694 16.36 13.4084 16.3522 13.4448 16.3372C13.4812 16.3221 13.5143 16.3 13.5421 16.2721C13.57 16.2443 13.5921 16.2112 13.6072 16.1748C13.6222 16.1384 13.63 16.0994 13.63 16.06V13.94C13.63 13.9006 13.6222 13.8616 13.6072 13.8252C13.5921 13.7888 13.57 13.7557 13.5421 13.7279C13.5143 13.7 13.4812 13.6779 13.4448 13.6628C13.4084 13.6478 13.3694 13.64 13.33 13.64H11.18C11.1004 13.64 11.0241 13.6716 10.9679 13.7279C10.9116 13.7841 10.88 13.8604 10.88 13.94H10.91ZM2.73 8.94V11.06C2.73 11.1396 2.76161 11.2159 2.81787 11.2721C2.87413 11.3284 2.95043 11.36 3.03 11.36H5.18C5.25956 11.36 5.33587 11.3284 5.39213 11.2721C5.44839 11.2159 5.48 11.1396 5.48 11.06V8.94C5.48 8.9006 5.47224 8.86159 5.45716 8.8252C5.44209 8.7888 5.41999 8.75573 5.39213 8.72787C5.36427 8.70001 5.3312 8.67791 5.29481 8.66284C5.25841 8.64776 5.2194 8.64 5.18 8.64H3.03C2.9906 8.64 2.95159 8.64776 2.91519 8.66284C2.8788 8.67791 2.84573 8.70001 2.81787 8.72787C2.79001 8.75573 2.76791 8.7888 2.75284 8.8252C2.73776 8.86159 2.73 8.9006 2.73 8.94ZM10.91 8.94V11.06C10.91 11.1396 10.9416 11.2159 10.9979 11.2721C11.0541 11.3284 11.1304 11.36 11.21 11.36H13.33C13.3694 11.36 13.4084 11.3522 13.4448 11.3372C13.4812 11.3221 13.5143 11.3 13.5421 11.2721C13.57 11.2443 13.5921 11.2112 13.6072 11.1748C13.6222 11.1384 13.63 11.0994 13.63 11.06V8.94C13.63 8.9006 13.6222 8.86159 13.6072 8.8252C13.5921 8.7888 13.57 8.75573 13.5421 8.72787C13.5143 8.70001 13.4812 8.67791 13.4448 8.66284C13.4084 8.64776 13.3694 8.64 13.33 8.64H11.18C11.1406 8.64 11.1016 8.64776 11.0652 8.66284C11.0288 8.67791 10.9957 8.70001 10.9679 8.72787C10.94 8.75573 10.9179 8.7888 10.9028 8.8252C10.8878 8.86159 10.88 8.9006 10.88 8.94H10.91ZM2.73 3.94V6.06C2.73 6.13956 2.76161 6.21587 2.81787 6.27213C2.87413 6.32839 2.95043 6.36 3.03 6.36H5.18C5.25956 6.36 5.33587 6.32839 5.39213 6.27213C5.44839 6.21587 5.48 6.13956 5.48 6.06V3.94C5.48 3.86044 5.44839 3.78413 5.39213 3.72787C5.33587 3.67161 5.25956 3.64 5.18 3.64H3.03C2.95043 3.64 2.87413 3.67161 2.81787 3.72787C2.76161 3.78413 2.73 3.86044 2.73 3.94ZM10.91 3.94V6.06C10.91 6.13956 10.9416 6.21587 10.9979 6.27213C11.0541 6.32839 11.1304 6.36 11.21 6.36H13.33C13.3694 6.36 13.4084 6.35224 13.4448 6.33716C13.4812 6.32209 13.5143 6.29999 13.5421 6.27213C13.57 6.24427 13.5921 6.2112 13.6072 6.17481C13.6222 6.13841 13.63 6.0994 13.63 6.06V3.94C13.63 3.9006 13.6222 3.86159 13.6072 3.8252C13.5921 3.7888 13.57 3.75573 13.5421 3.72787C13.5143 3.70001 13.4812 3.67791 13.4448 3.66284C13.4084 3.64776 13.3694 3.64 13.33 3.64H11.18C11.1004 3.64 11.0241 3.67161 10.9679 3.72787C10.9116 3.78413 10.88 3.86044 10.88 3.94H10.91Z" fill="#0D0D0D"/>
</svg>
