<?xml version="1.0" encoding="UTF-8"?>
<svg id="Layer_1" xmlns="http://www.w3.org/2000/svg" version="1.1" viewBox="0 0 967.1 969.3">
  <!-- Generator: Adobe Illustrator 29.2.0, SVG Export Plug-In . SVG Version: 2.1.0 Build 108)  -->
  <defs>
    <style>
      .st0 {
        fill: #fff;
      }
    </style>
  </defs>
  <path class="st0" d="M919.3,281.1c8.5,30.7,8.1,65.3,3,96.7-2.1,12.8-7.8,31-13,43-1.6,3.7-42.2,50.1-44.6,54,3.6,12.8,13.4,13.2,23,18.7,26.2,14.8,55.8,30.5,69.6,57.3,24.8,48.2-11.6,93.4-12.1,98.9-.8,9.9,19,44,19.9,54.1,2.4,24.3,2.7,51.4,0,75.7s-8.7,29.1-12.7,34.3c-45.9,60.5-182,127.7-253.6,147s-70.7,11.8-108.1,3.4-18-3.7-27.4-5.6c-24.6-4.9-60.4-28.2-75.2-48.7-28-39.1-35.8-182.8-39-182.7-2.4,4.2-54,46.8-69.1,53.8-103.7,47.9-210.7,13.2-266.6-20.8C-6,687.2-.2,450.5.1,428.8s4.3-37.1,7.2-53.8c3.3-19.2,7.1-33.5,14.7-51.3s27.3-44.5,44.6-60.3c46.5-42.3,118.1-51.6,179.6-40.7s23.9,9.3,30.7,6.2c4.6-2.1,31.1-192.4,176.9-222.7,231.1-48.1,442.1,190.8,465.4,274.8ZM298.6,278.7c-2.8.5-23.2,6.8-25.1,7.9s-12.4,13.2-13,15c-2.3,6.9-2.4,16.2-5.7,23.3,3.5,36.7-6.9,85.8,5.6,120.4,9,25.1,51,29.3,71.1,16.2,15.9-10.3,21-32.5,18.2-50.6-2.6-16.6-29.4-10.8-31.7-2.9s3.4,29.2-9.8,31.2-20.5-4.1-21.5-18.4c-2.2-31.6,1.5-65.9.3-97.7,3.4-6.5,2.4-14.3,11.3-15.7,13-2,16.6,3.6,18.3,15.5s-2.5,10.8,4.8,15.1,21.3,5.7,26.8-2.7,1.7-7.6,1.4-11.5-3.4-21.2-4.5-23.4-5.9-4.6-8-7-2.5-5.1-4.4-6.6-14.6-4.2-18.6-5.4c-6.4-1.8-7.5-4.2-15.7-2.8ZM492.5,282.7c-1.9.5-9.4,6-10.2,7.8-1.6,3.5.5,7.6.5,11.4,0,37.3-3,82.3,0,119s4.2,27,13,34.9c14.4,13,26.5,14,45.5,12.5,9.1-.7,24.4-7.7,29.9-15.1s6.2-23,9.4-31.5c-2-40.3,3-83.9.1-123.8s-.3-7.9-4.1-10.9c-6.4-5-23.3-7.6-25.7,3.1l-.2,131.6c0,8.9-5.2,14.8-13.3,17.7-2.3.9-10.3,0-12.8-.7-9.5-2.9-10.2-24-10-32.1.9-34.3,3.5-74.9,1.1-108.9-.5-7.5-1.7-11.3-9.5-13.5s-12.2-2.2-13.8-1.8ZM626.4,282.8c-5.1.6-10.1,2.5-13.8,6.1-.9,5.6-1.7,12.1-2,18-2.1,48.8,1.3,99.5.5,148.5,1.5,6.8,4.1,10.5,11.3,11.7,15.9,2.7,37.9-1.3,54.5,0,5.8-6,18.1-9.2,23.1-14.8s13.3-28.9,13.5-33.6c.7-13.7-4.1-25.3-11.1-36.6-3.1-5-8.9-9.1-10.7-15.3-.3-3.1,9.5-7.7,11.1-11.6s3.3-16.3,3.6-19.3c.7-7.2-1-26.4-3.6-33.2-.4-.9-12.1-13.9-13.2-14.7-5.1-3.8-26.4-5.2-33.5-5.5s-6.6,1.1-10,1.1c-6.7,0-12.3-1.7-19.7-.8ZM392.6,283.7c-14.6,2.1-10.1,10.2-10.7,21.3-2.5,42.9,0,87.8,0,130.9-.7,7.1-.9,19.8,1.4,26.5s9.2,4.7,13,5c14.2,1.1,38.9,1.2,53,0s9.1-1.4,10.8-2.2c4.8-2.4,4.6-20,.7-24.3-6.1-.6-12.5-2-18.5-2.5s-25,2.2-28.2-5.8c-2.3-5.7-1.3-20.8-1.3-27.8,0-34.5,1-69.4,1.1-103.9s-5.6-19.5-21.3-17.2ZM741.3,455.5c-1.3.2-8.6,2.7-9.7,3.3-6,3.3-5.6,10.3-8.5,15.5s-9.1,8.2-7.1,12.9c2.3,5.2,12.6,5.1,16.9,2.9s11.6-10.2,13.2-11.8,2.8-4.6,4.5-6.5c2.4-2.7,9.3-5.2,7.3-10.2-2.3-5.6-11.1-6.9-16.5-6.1ZM232.7,501.5c-2.7.6-6.8,4.3-6.8,7.2v169.9c-.2,2.2,4,6.7,5.8,7.2,4,1.2,24.7.2,26.1-4.5l1.7-66.2c2.7-6.2,21-4.4,26.9-5,11.9-1.3,28.9-11.4,35.5-21.5,6.7-10.2,7.1-54.4.4-64.4s-26.2-21.9-40.9-23-32.9.7-48.7.2ZM384.6,501.5c-8.3,1.4-10.4,5.4-12.3,12.7-4.5,18.1-5,37.3-9.3,55.6-3.9,16.4-4.8,27.4-7.4,43.5-1.3,8.2-4.7,14.8-6.4,22.5s-1.5,15.5-2.3,23.7c-.3,3.5-3.2,19.2-2.8,20.8,2.4,9.2,28.7,6.8,29.8-.8s-1.2-5.3-1.1-7.9c.2-7.2,4.1-26.1,12.6-27.4s20.6-.5,23,.9c7.7,4.5,3.2,28.2,8.4,35.6,4.8,6.8,26.5,9.1,29.8-.8-3.3-12-3-24.7-5-36.9-1.7-10-6.1-19.9-7.6-29.4s-.3-21-2.4-30.6c-1.2-5.7-4.7-11-6.3-16.7-3.9-14.3-2-29-6-44s-4.6-16-9.2-18.8-19.8-2.9-25.6-1.9ZM450.5,501.5c-9.4,1.5-6.8,23.6,0,25.6,2.8.8,6.5-.1,9.7.3,10.6,1.5,14.3,1.7,16.5,13.4l.3,140.6c1.2,1.9,3.1,4.3,5.3,4.7s19.6.4,21.8-.2,4.8-4.8,4.7-7.3l.2-139.6,4.8-10.2c8.7-1,24.1.5,25.9-11.1,2.1-13.3-2.3-15.4-14.4-16.4-23.9-2-50.5,1.3-74.7.2ZM623.4,573c-5.1,5.3-29.8,5.7-34.3.3s.7-57.1-1.9-67c-5.1-7-19.5-6.4-25.8-1.9-3.1,2.3-3.4,5.6-3.7,9.3-2.2,26,1.3,54.9,1.1,81-.2,23.8-1.2,48.1-1.1,71.9,0,2.1.9,12.4,1.3,13.8,1.9,6.3,25.1,8.9,28.3.7l1-67c4.4-15.5,33.1-16.8,36.3.8l.7,66.2c4.8,7.5,24.5,6.6,28.9,0l.3-173.1c-4-8.1-24.6-9.3-28.3-1.7s-1.4,14-1.5,16.4c-.3,7.4,1.4,47.6-1.2,50.2ZM764.3,528c.5-.3,5.4-7.6,5.7-8.7,1.8-6.7,1.5-15.4-6.2-17.8-21.1,1.1-45-2.2-65.7-.2-3.2.3-11.6,2-13,5v175.8c3.3,2.6,7.7,3.7,11.9,4,16.3,1.4,48.8,1.5,65,0,13.4-1.3,17.3-15.4,6.8-22.8-14.6-10.3-49.5,8.3-52.3-16.7s-.8-24.3,0-30.9,2.2-7.2,3.9-9.1c6-6.9,24.8-2.5,32.3-4.7s9.6-21.6.8-24.3-31.6,2.1-36.1-4.9-.8-1.7-1-3c-.8-6.2-.5-27.3,1.3-32.8,1.8-5.3,4.9-7.6,10.5-8.5,6.3-1,33.7.9,36-.5Z"/>
  <path d="M626.4,282.8c7.4-.9,13,.9,19.7.8s6.4-1.3,10-1.1c7.1.3,28.4,1.7,33.5,5.5s12.9,13.8,13.2,14.7c2.5,6.7,4.3,25.9,3.6,33.2s-2.8,17.1-3.6,19.3c-1.5,3.8-11.4,8.4-11.1,11.6,1.7,6.2,7.6,10.3,10.7,15.3,7,11.3,11.7,23,11.1,36.6-.2,4.7-10.5,30.2-13.5,33.6-5,5.7-17.3,8.8-23.1,14.8-16.6-1.3-38.6,2.6-54.5,0-7.2-1.2-9.8-4.9-11.3-11.7.8-49-2.6-99.6-.5-148.5s1.1-12.4,2-18c3.7-3.6,8.8-5.5,13.8-6.1ZM654.4,307.7c-2,.2-10.1,2.8-10.7,4.4.6,9.9-4.9,46.6,11.4,46.2,2.8,0,14.3-7.3,15.9-9.9,4.7-7.7,4.1-30.9-2.4-37.5s-11-3.6-14.2-3.2ZM653.3,383.6c-3.2.5-8.8,2.9-9.5,6.5v41.5c6.6,8.7,22.6,10,29.8,1.2s9.6-22.3,3.8-33.8c-1-2-8.9-12.9-10.3-13.7-2.8-1.6-10.6-2.2-13.8-1.7Z"/>
  <path d="M623.4,573c2.6-2.7.9-42.9,1.2-50.2.1-2.5,1.1-15.6,1.5-16.4,3.7-7.6,24.2-6.4,28.3,1.7l-.3,173.1c-4.4,6.6-24.1,7.6-28.9,0l-.7-66.2c-3.2-17.6-31.9-16.2-36.3-.8l-1,67c-3.2,8.3-26.4,5.6-28.3-.7s-1.3-11.7-1.3-13.8c0-23.8.9-48.1,1.1-71.9.2-26.1-3.3-55-1.1-81,.3-3.8.5-7,3.7-9.3,6.3-4.6,20.8-5.1,25.8,1.9,2.6,9.9-2.4,62,1.9,67s29.2,5,34.3-.3Z"/>
  <path d="M492.5,282.7c1.6-.4,11.6,1.2,13.8,1.8,7.8,2.2,8.9,6,9.5,13.5,2.5,34-.2,74.6-1.1,108.9s.5,29.2,10,32.1,10.5,1.5,12.8.7c8-3,13.2-8.9,13.3-17.7l.2-131.6c2.4-10.8,19.3-8.2,25.7-3.1s3.8,6.4,4.1,10.9c2.9,40-2.2,83.5-.1,123.8-3.2,8.5-4.2,24.5-9.4,31.5s-20.8,14.4-29.9,15.1c-19,1.5-31.1.4-45.5-12.5-8.8-8-12.1-23.2-13-34.9-2.9-36.7,0-81.6,0-119s-2.2-7.9-.5-11.4,8.3-7.4,10.2-7.8Z"/>
  <path d="M384.6,501.5c5.8-1,20.7-1.1,25.6,1.9s7.7,13.4,9.2,18.8c4,15,2.1,29.7,6,44,1.6,5.8,5.1,11.1,6.3,16.7,2,9.6.8,20.9,2.4,30.6s5.9,19.3,7.6,29.4c2,12.2,1.7,24.9,5,36.9-3.2,9.9-24.9,7.6-29.8.8-5.2-7.4-.8-31-8.4-35.6-2.4-1.4-19.5-1.4-23-.9-8.5,1.4-12.5,20.3-12.6,27.4s1.5,5.2,1.1,7.9c-1.2,7.6-27.4,10.1-29.8.8-.4-1.5,2.5-17.3,2.8-20.8.8-8.1.4-15.3,2.3-23.7s5.1-14.4,6.4-22.5c2.6-16.2,3.6-27.1,7.4-43.5,4.3-18.4,4.8-37.5,9.3-55.6,1.8-7.4,4-11.3,12.3-12.7ZM395.3,557.2c-4.1,0-7,24.9-7.8,29.2s-2.2,5.5-2.6,8.4c-1,7.7-.5,24.4,10.4,24s7.8-5.8,8.4-10.2c.9-7.6-2.3-40.6-5.4-47.4s-1.6-2.9-3-4Z"/>
  <path d="M232.7,501.5c15.8.5,33.1-1.4,48.7-.2s32.7,10.7,40.9,23,6.2,54.2-.4,64.4c-6.6,10.1-23.6,20.2-35.5,21.5-6,.6-24.3-1.1-26.9,5l-1.7,66.2c-1.4,4.7-22.1,5.7-26.1,4.5s-6-5-5.8-7.2v-169.9c0-2.9,4.1-6.6,6.8-7.2ZM265.7,525.4c-1.9.3-3.6,1.9-4.5,3.6-4.1,7.3-4.6,38.7-2,46.5s4,8,6.4,8.5,19.7-3.2,21.6-4c7.8-3.1,10.7-21.9,9.7-29.2s-2.4-9-3.1-10.8c-2.5-6.2-5.7-6.1-10.1-8.8s-3.1-3.3-4.9-4.1-11.6-1.8-13-1.6Z"/>
  <path d="M298.6,278.7c8.3-1.4,9.3,1,15.7,2.8s16.3,3.6,18.6,5.4,2.6,4.6,4.4,6.6,6.8,4.5,8,7,4.3,20.1,4.5,23.4.7,8.3-1.4,11.5c-5.5,8.4-19,7.3-26.8,2.7s-3.9-8.4-4.8-15.1c-1.7-11.9-5.4-17.5-18.3-15.5-8.9,1.4-8,9.1-11.3,15.7,1.3,31.8-2.5,66.2-.3,97.7,1,14.3,6.1,20.8,21.5,18.4s7.6-23.8,9.8-31.2,29.1-13.7,31.7,2.9c2.8,18.1-2.4,40.3-18.2,50.6-20.1,13.1-62.1,8.9-71.1-16.2-12.4-34.6-2-83.6-5.6-120.4,3.3-7.1,3.4-16.3,5.7-23.3s11.2-13.9,13-15,22.2-7.4,25.1-7.9Z"/>
  <path d="M764.3,528c-2.3,1.4-29.7-.5-36,.5-5.6.9-8.7,3.1-10.5,8.5-1.8,5.5-2.1,26.6-1.3,32.8s.2,1.9,1,3c4.5,6.9,28.7,2.6,36.1,4.9s7.2,22-.8,24.3-26.3-2.2-32.3,4.7c-1.7,1.9-3.5,6.5-3.9,9.1-.9,6.6-.8,24.2,0,30.9,2.8,25,37.7,6.3,52.3,16.7,10.5,7.4,6.6,21.6-6.8,22.8-16.2,1.5-48.7,1.4-65,0s-8.6-1.4-12-4v-175.8c1.4-3,9.8-4.7,13-5,20.7-2,44.7,1.3,65.7.2,7.7,2.4,8,11.1,6.2,17.8-.3,1.1-5.3,8.5-5.7,8.7Z"/>
  <path d="M450.5,501.5c24.2,1.1,50.8-2.2,74.7-.2s16.5,3.1,14.4,16.4c-1.8,11.5-17.2,10.1-25.9,11.1l-4.8,10.2-.2,139.6c0,2.5-2.4,6.6-4.7,7.3s-19.2.7-21.8.2-4.2-2.8-5.3-4.7l-.3-140.6c-2.3-11.7-5.9-11.9-16.5-13.4-3.1-.4-6.9.5-9.7-.3-6.8-2-9.4-24.1,0-25.6Z"/>
  <path d="M392.6,283.7c15.7-2.3,21.4.7,21.3,17.2-.1,34.5-1.1,69.4-1.1,103.9,0,6.9-1,22,1.3,27.8,3.2,8,21.1,5.2,28.2,5.8s12.4,1.8,18.5,2.5c3.9,4.3,4.1,21.9-.7,24.3s-8.6,2-10.8,2.2c-14.1,1.2-38.9,1.1-53,0-3.8-.3-11.6-1.1-13-5-2.3-6.7-2.1-19.4-1.4-26.5,0-43.1-2.5-88,0-130.9.6-11.1-3.9-19.2,10.7-21.3Z"/>
  <path d="M741.3,455.5c5.4-.9,14.2.5,16.5,6.1,2.1,5-4.9,7.5-7.3,10.2s-2.7,4.7-4.5,6.5-12.1,11.3-13.2,11.8c-4.3,2.2-14.6,2.3-16.9-2.9-2.1-4.7,5-9,7.1-12.9s2.5-12.1,8.5-15.5,8.4-3.1,9.7-3.3Z"/>
  <path class="st0" d="M653.3,383.6c3.2-.5,11.1.1,13.8,1.7s9.3,11.7,10.3,13.7c5.8,11.5,4.1,24-3.8,33.8s-23.1,7.5-29.8-1.2v-41.5c.7-3.6,6.3-6,9.5-6.5Z"/>
  <path class="st0" d="M654.4,307.7c3.3-.3,12,1,14.2,3.2,6.5,6.5,7.1,29.8,2.4,37.5s-13.1,9.9-15.9,9.9c-16.2.4-10.7-36.4-11.4-46.2.5-1.6,8.7-4.2,10.7-4.4Z"/>
  <path class="st0" d="M395.3,557.2c1.4,1.1,2.3,2.4,3,4,3.1,6.8,6.3,39.7,5.4,47.4s-3.4,10-8.4,10.2c-10.9.4-11.5-16.3-10.4-24s2.1-5.5,2.6-8.4c.8-4.3,3.7-29.1,7.8-29.2Z"/>
  <path class="st0" d="M265.7,525.4c1.4-.2,11.6,1,13,1.6s3.1,3,4.9,4.1c4.4,2.8,7.7,2.7,10.1,8.8s2.9,9,3.1,10.8c1,7.3-1.9,26.1-9.7,29.2s-20.4,4.2-21.6,4c-2.3-.4-5.6-6.2-6.4-8.5-2.6-7.9-2.1-39.2,2-46.5s2.6-3.2,4.5-3.6Z"/>
</svg>