<svg width="632" height="133" viewBox="0 0 632 133" fill="none" xmlns="http://www.w3.org/2000/svg">
<path d="M550.691 20.6736C538.78 32.0176 528.714 41.2412 528.402 41.1913C528.028 41.1352 522.472 36.3145 515.955 30.4772C509.494 24.6524 503.351 19.2392 502.347 18.3911L500.495 16.963H481.536C471.109 16.963 462.478 17.175 462.315 17.4432C462.053 17.8111 485.402 40.9231 491.969 46.8041L494.196 48.7685L506.425 48.8246C513.148 48.8745 518.655 49.0367 518.655 49.1926C518.655 49.4046 503.987 63.3429 486.088 80.2061C468.196 97.113 453.528 111.107 453.528 111.376C453.528 111.637 464.118 111.85 479.154 111.85H504.785L517.071 99.2895L529.3 86.667L551.907 109.567L574.52 132.523H603.27C619.054 132.523 631.97 132.311 631.97 132.099C631.97 131.831 626.675 127.116 620.214 121.553C613.704 115.984 598.93 103.318 587.28 93.3524L566.207 75.2731H553.286C546.189 75.2731 540.364 75.1172 540.364 74.9052C540.364 74.6932 544.124 70.7143 548.733 66.0495C553.342 61.3348 561.493 52.9531 566.843 47.4402C572.244 41.8773 584.58 29.205 594.271 19.2954C603.906 9.32963 611.851 0.904275 611.851 0.579983C611.851 0.155909 606.183 0 592.151 0L572.4 0.0561271L550.691 20.6736Z" fill="white"/>
<path d="M372.723 32.0173C369.861 33.3456 367.747 35.678 366.743 38.6466C366.319 39.9188 366.156 48.7682 366.156 67.9077V95.4164H380.457V71.6121C380.457 58.5219 380.612 47.4399 380.775 46.9659C380.93 46.4919 381.673 46.1178 382.359 46.1178C383.949 46.1178 384.105 46.3797 401.105 72.1484C408.944 84.0724 414.875 92.5539 415.823 93.2399C422.284 97.8548 432.661 98.1728 437.694 93.9882C441.398 90.8576 441.349 91.4438 441.349 60.2743V32.3353H427.049V56.4015C427.049 82.0019 427.049 82.0019 424.56 81.5279C423.98 81.4219 417.575 72.3043 408.202 58.3099C397.189 41.771 392.212 34.8299 390.778 33.8196C386.281 30.533 377.7 29.6849 372.723 32.0173Z" fill="white"/>
<path d="M13.3459 32.9212C10.3773 33.6072 6.56691 35.7276 4.65858 37.7419C3.71065 38.6961 2.27628 40.9225 1.48426 42.6749C0.162147 45.5311 0 46.4354 0 51.4183C0 56.6693 0.106018 57.2493 1.74619 60.5359C3.71065 64.5147 5.56285 66.3669 9.79736 68.3314L12.7097 69.7034L30.9761 69.9715C47.5524 70.2397 49.4545 70.3395 50.7829 71.1876C54.7554 73.8443 54.1193 79.9934 49.6666 81.6897C48.9307 81.9516 38.229 82.1637 24.8333 82.1637H1.32211V95.4721L27.4276 95.3099C52.5291 95.1478 53.5892 95.0979 56.1836 94.0377C57.6678 93.4016 59.782 92.2354 60.8422 91.3873C64.9207 88.1506 68.0452 81.7396 68.0452 76.6008C68.0452 70.8758 64.5466 64.4024 59.8381 61.2219C55.0673 58.0975 52.8471 57.7794 35.1046 57.7794C17.6365 57.7794 16.3643 57.5674 14.88 54.6487C13.8198 52.6406 13.8198 51.2561 14.8301 49.2979C16.5202 46.0113 15.7282 46.1174 41.4096 46.1174H64.8646V32.335L40.1374 32.3849C26.4797 32.441 14.4559 32.653 13.3459 32.9212Z" fill="white"/>
<path d="M98.2231 33.1831C86.7856 35.6215 77.1005 45.1632 74.344 56.7192C73.3898 60.5858 73.4959 67.8512 74.556 71.936C76.7263 80.2553 83.3431 88.3626 90.8642 91.9673C97.481 95.0979 100.025 95.416 119.832 95.416H137.406V82.2136L120.094 82.0576L102.726 81.9017L99.7635 80.5173C95.5789 78.559 92.7164 75.7527 90.7083 71.6678C89.1679 68.5933 88.9558 67.6391 88.9558 63.8786C88.9558 60.4299 89.224 59.1015 90.3341 56.7192C92.1364 52.9026 95.4729 49.51 99.1773 47.8137L102.196 46.3793L137.144 45.8554L137.3 39.0703L137.462 32.335L119.564 32.3849C106.38 32.441 100.768 32.653 98.2231 33.1831Z" fill="white"/>
<path d="M150.116 33.2891C149.112 33.7693 147.84 35.0415 147.203 36.0456C146.199 37.8479 146.143 38.6961 146.143 66.5228V95.1478L153.19 95.3099L160.175 95.4721V71.5119L177.543 71.6678C190.521 71.7738 195.18 71.9859 196.24 72.516C198.835 73.8942 199.096 74.8484 199.365 85.3442L199.627 95.1478L206.667 95.3099L213.764 95.4721L213.502 83.9098C213.396 76.8627 213.022 71.5618 212.654 70.2896C212.28 69.1795 210.958 67.2712 209.742 65.999L207.466 63.7663L209.742 61.384C213.658 57.1932 214.825 49.828 212.492 43.6228C210.802 38.958 206.455 34.8794 201.797 33.445C198.354 32.3849 197.032 32.335 175.055 32.335C154.145 32.335 151.812 32.441 150.116 33.2891ZM195.654 46.5414C197.668 47.6016 199.365 50.3581 199.365 52.4785C199.365 54.2247 197.668 56.9313 195.816 58.1536C194.544 59.0017 192.692 59.1015 177.543 59.2637L160.705 59.4258V52.8527C160.705 49.248 160.867 46.1174 161.079 45.9552C161.235 45.7432 168.7 45.5873 177.6 45.5873C192.317 45.5873 194.014 45.6933 195.654 46.5414Z" fill="white"/>
<path d="M226.05 33.3453C222.077 35.1413 222.134 34.6674 222.134 63.5543C222.134 92.7156 222.134 92.6034 226.05 94.4119C228.058 95.31 230.073 95.416 256.97 95.416H285.67V82.1637H261.685C243.736 82.1637 237.537 82.0015 237.063 81.5276C236.639 81.1035 236.427 78.9831 236.427 75.4284V69.9715H285.14V57.7794H236.427V52.7965C236.427 50.0401 236.583 47.4395 236.745 46.9655C237.007 46.2234 239.708 46.1174 261.367 46.1174H285.67V32.335H256.97C230.129 32.335 228.058 32.441 226.05 33.3453Z" fill="white"/>
<path d="M297.906 33.2891C296.896 33.8192 295.63 35.0914 295.099 36.1017C294.195 37.7419 294.145 39.7064 294.145 63.8786C294.145 92.9277 294.089 92.4475 297.85 94.4618C299.546 95.3598 301.56 95.416 328.402 95.416H357.158V82.1637L332.954 82.0576L308.707 81.9017L308.545 75.9086L308.389 69.9715H357.158V57.7794H308.389L308.545 52.0544L308.707 46.3793L332.954 46.2234L357.158 46.1174V32.335H328.402C301.61 32.335 299.546 32.3849 297.906 33.2891Z" fill="white"/>
</svg>
