<svg width="20" height="20" viewBox="0 0 20 20" fill="none" xmlns="http://www.w3.org/2000/svg">
<path fill-rule="evenodd" clip-rule="evenodd" d="M0 10C0 8.02219 0.58649 6.08879 1.6853 4.4443C2.78412 2.79981 4.3459 1.51809 6.17317 0.761209C8.00043 0.00433284 10.0111 -0.193701 11.9509 0.192152C13.8907 0.578004 15.6725 1.53041 17.0711 2.92894C18.4696 4.32746 19.422 6.10929 19.8079 8.0491C20.1937 9.98891 19.9957 11.9996 19.2388 13.8268C18.4819 15.6541 17.2002 17.2159 15.5557 18.3147C13.9112 19.4135 11.9778 20 10 20C7.34784 20 4.8043 18.9464 2.92893 17.0711C1.05357 15.1957 0 12.6522 0 10ZM10.83 4.42C10.8313 4.33249 10.8152 4.24559 10.7827 4.16436C10.7501 4.08313 10.7017 4.00919 10.6403 3.94684C10.5788 3.88449 10.5056 3.83497 10.4249 3.80118C10.3442 3.76739 10.2575 3.74999 10.17 3.75H10.1C9.92576 3.75259 9.75938 3.82295 9.63616 3.94617C9.51295 4.06939 9.44258 4.23577 9.44 4.41V9.31001C9.43161 9.43542 9.39485 9.55729 9.33249 9.66643C9.27013 9.77556 9.18379 9.86911 9.08 9.94L6.15 11.74C5.99908 11.8352 5.88956 11.9838 5.84323 12.1561C5.7969 12.3285 5.81717 12.5119 5.9 12.67L6 12.8C6.04031 12.8753 6.09575 12.9414 6.16282 12.9943C6.22989 13.0471 6.30716 13.0856 6.38978 13.1072C6.4724 13.1287 6.55859 13.133 6.64295 13.1198C6.7273 13.1065 6.80801 13.0759 6.88 13.03L10.15 11.03C10.3588 10.8857 10.5316 10.6951 10.6547 10.473C10.7778 10.251 10.8481 10.0036 10.86 9.75V4.42H10.83Z" fill="#0D0D0D"/>
</svg>
